HIERARCHY
ROOT Hips
{
  OFFSET 0 0 0
  CHANNELS 6 Xposition Yposition Zposition Zrotation Xrotation Yrotation
  JOINT Spine
  {
    OFFSET 0.00000000 0.00000000 0.00000000
    CHANNELS 3 Zrotation Xrotation Yrotation
    JOINT Spine1
    {
      OFFSET 0.19000000 0.00000000 0.00000000
      CHANNELS 3 Zrotation Xrotation Yrotation
      JOINT Neck
      {
        OFFSET 0.22500000 0.00600000 0.00000000
        CHANNELS 3 Zrotation Xrotation Yrotation
        JOINT Head
        {
          OFFSET 0.14000000 0.00030878 0.00000000
          CHANNELS 3 Zrotation Xrotation Yrotation
          End Site
          {
            OFFSET 0.17000000 0.00000000 0.00000000
          }
        }
      }
      JOINT LeftShoulder
      {
        OFFSET 0.19800000 0.03700000 0.04300000
        CHANNELS 3 Zrotation Xrotation Yrotation
        JOINT LeftArm
        {
          OFFSET 0.08000000 0.00000000 0.00000000
          CHANNELS 3 Zrotation Xrotation Yrotation
          JOINT LeftForeArm
          {
            OFFSET 0.15200000 0.00000000 0.00000000
            CHANNELS 3 Zrotation Xrotation Yrotation
            JOINT LeftHand
            {
              OFFSET 0.17800000 0.00000000 0.00000000
              CHANNELS 3 Zrotation Xrotation Yrotation
              End Site
              {
                OFFSET 0.07200000 0.00000000 0.00000000
              }
            }
          }
        }
      }
      JOINT RightShoulder
      {
        OFFSET 0.19800000 0.03700000 -0.04300000
        CHANNELS 3 Zrotation Xrotation Yrotation
        JOINT RightArm
        {
          OFFSET 0.08000000 0.00000000 0.00151654
          CHANNELS 3 Zrotation Xrotation Yrotation
          JOINT RightForeArm
          {
            OFFSET 0.15200000 0.00000000 0.00000000
            CHANNELS 3 Zrotation Xrotation Yrotation
            JOINT RightHand
            {
              OFFSET 0.17800000 0.00000000 0.00000000
              CHANNELS 3 Zrotation Xrotation Yrotation
              End Site
              {
                OFFSET 0.07200000 0.00000000 0.00000000
              }
            }
          }
        }
      }
    }
  }
  JOINT LeftUpLeg
  {
    OFFSET 0.05984250 -0.07666000 0.04788790
    CHANNELS 3 Zrotation Xrotation Yrotation
    JOINT LeftLeg
    {
      OFFSET 0.16000000 0.00000000 0.00000000
      CHANNELS 3 Zrotation Xrotation Yrotation
      JOINT LeftFoot
      {
        OFFSET 0.18000000 0.00000000 0.00000000
        CHANNELS 3 Zrotation Xrotation Yrotation
        End Site
        {
          OFFSET 0.00000000 -0.10800000 0.00000000
        }
      }
    }
  }
  JOINT RightUpLeg
  {
    OFFSET 0.05984250 -0.07665980 -0.04788790
    CHANNELS 3 Zrotation Xrotation Yrotation
    JOINT RightLeg
    {
      OFFSET 0.16000000 0.00000000 0.00000000
      CHANNELS 3 Zrotation Xrotation Yrotation
      JOINT RightFoot
      {
        OFFSET 0.18000000 0.00000000 0.00000000
        CHANNELS 3 Zrotation Xrotation Yrotation
        End Site
        {
          OFFSET 0.00000000 -0.10800000 0.00000000
        }
      }
    }
  }
  JOINT Tail
  {
    OFFSET 0.06836960 -0.00722574 0.00000000
    CHANNELS 3 Zrotation Xrotation Yrotation
    JOINT Tail1
    {
      OFFSET 0.12000000 0.00000000 0.00000000
      CHANNELS 3 Zrotation Xrotation Yrotation
      End Site
      {
        OFFSET 0.12000000 0.00000000 0.00000000
      }
    }
  }
}
MOTION
Frames:	17
Frame Time:	0.0166667
-1.2406295 0.4748970 -0.3468297 -5.62557 4.42346 64.0039 174.269 -0.891362 -8.90288 31.2675 -1.48386 -12.2578 40.4752 -4.27457 -7.15236 46.8269 83.8432 -30.746 -108.665 -37.6253 -131.579 92.3255 14.9259 -128.648 17.2978 -51.3352 147.479 -0.768911 8.1425 -41.3597 75.4964 -29.0255 42.941 42.3225 -30.5655 -33.6367 -89.4248 -9.81361 -12.2423 -19.1921 -2.51879 13.0343 -123.273 1.6666 -33.4814 68.743 12.3364 18.2187 46.7473 -4.15737 -7.57316 -128.823 6.06371 1.9624 74.2823 1.01569 -7.50002 59.7978 0.671286 -2.01237 149.281 -85.04 -149.689 -31.8431 82.5942 32.259 
-1.2401482 0.4745070 -0.3454737 -5.71593 4.45410 64.0442 174.209 -0.958431 -8.52445 31.4534 -1.63474 -12.7889 40.2 -4.06189 -7.98171 48.0095 84.4155 -33.1599 -108.551 -37.4672 -131.549 89.7442 17.8781 -128.64 16.657 -49.9627 146.663 -1.02268 7.80645 -39.3996 75.5139 -29.0148 42.9773 42.3687 -30.6547 -33.3383 -89.681 -9.66807 -12.3369 -19.0313 -2.46932 12.9503 -123.206 1.53137 -33.644 68.8864 12.4263 18.1915 46.5604 -4.11847 -7.52327 -128.843 5.91952 1.80727 74.6913 0.892766 -7.34616 59.4844 0.652866 -2.0166 148.203 -85.4478 -150.86 -28.9696 81.7048 29.3628 
-1.2402360 0.4743390 -0.3442970 -5.74354 4.41726 64.0625 174.264 -1.1212 -8.22638 31.4884 -1.86013 -13.3482 39.6246 -3.37649 -9.47086 54.0742 85.9621 -39.3493 -108.425 -37.415 -131.298 87.9985 19.8574 -128.491 15.4211 -49.7897 145.112 -1.5839 7.66677 -38.3584 75.525 -28.955 42.8671 42.422 -30.6781 -33.2427 -89.8628 -9.58477 -12.3935 -19.0421 -2.45807 12.9376 -123.156 1.40517 -33.6479 69.0864 12.3469 18.1277 46.46 -4.0779 -7.47468 -128.738 5.71964 1.62566 74.9599 0.834381 -7.131 59.091 0.618614 -2.02439 145.878 -85.7616 -153.213 -26.6277 80.9812 27.0416 
-1.2407166 0.4742340 -0.3435728 -5.75234 4.36199 64.0568 174.339 -1.17247 -8.24359 31.5378 -1.92993 -13.5617 38.8495 -2.74276 -10.8714 66.3108 87.4082 -50.6525 -108.393 -37.3571 -131.313 86.8447 21.3999 -127.649 12.3758 -51.7052 141.304 -2.8592 7.5117 -36.4331 75.4481 -28.9984 42.6988 42.8849 -30.771 -32.8176 -90.1022 -9.17706 -12.4473 -19.0153 -2.60411 13.3722 -123.135 1.28965 -33.688 69.2137 12.4898 18.141 46.4559 -4.08562 -7.48153 -128.668 5.42611 1.2205 75.184 1.0722 -6.77039 58.7325 0.537379 -2.07917 143.319 -85.9838 -155.792 -24.4625 80.3703 24.9545 
-1.2409030 0.4739480 -0.3430215 -5.66897 4.31647 64.0892 174.3 -1.30258 -8.13363 31.6304 -2.11042 -13.9021 38.3527 -2.86273 -11.3747 65.8105 87.3259 -49.9027 -108.275 -37.2682 -131.148 85.8302 22.7844 -126.438 6.40509 -54.7886 134.444 -4.38416 7.12478 -33.5177 75.417 -28.9597 42.4893 43.2559 -30.4546 -32.6392 -90.4082 -9.14477 -12.6179 -19.0924 -2.39656 12.7572 -123.148 1.15601 -33.6045 69.3183 12.5541 18.1178 46.3332 -4.07825 -7.47312 -128.679 5.18256 0.916175 75.5036 1.36081 -6.4685 58.356 0.448534 -2.1387 140.987 -86.2037 -158.088 -22.58 79.8875 23.1909 
-1.2409087 0.4735080 -0.3424428 -5.50722 4.26428 64.1364 174.22 -1.43927 -8.15731 31.7148 -2.27734 -14.0275 38.0585 -2.75571 -12.3181 72.8801 87.7181 -56.6557 -108.293 -37.2915 -131.156 83.7802 24.1612 -125.407 -4.67997 -57.7226 122.747 -6.31298 6.3288 -28.9448 75.4729 -28.8447 42.4001 43.6859 -30.3252 -32.7151 -90.6469 -8.38377 -12.6441 -18.8989 -2.44399 12.855 -123.152 1.01482 -33.5906 69.3862 12.6604 18.2311 46.2219 -4.10809 -7.51489 -128.729 5.08193 0.875787 75.853 1.74337 -6.37496 57.9802 0.366381 -2.20844 139.425 -86.3492 -159.58 -21.1547 79.6308 21.9444 
-1.2412206 0.4731000 -0.3419285 -5.25196 4.24674 64.2019 174.017 -1.54948 -8.22304 31.8518 -2.42377 -14.0719 37.9138 -2.81775 -12.5445 69.4031 86.5328 -53.1204 -108.348 -37.3791 -131.15 81.1936 24.2645 -124.293 -22.1295 -59.148 105.155 -8.7394 5.04211 -22.4829 75.4831 -28.7834 42.2814 44.1227 -30.194 -32.5943 -90.7314 -7.92213 -12.6724 -18.8925 -2.504 12.9687 -123.224 0.803505 -33.5361 69.4045 12.6322 18.3587 46.154 -4.13192 -7.54439 -128.511 5.11559 0.959214 75.962 2.19654 -6.34398 56.8417 0.244 -2.25621 138.627 -86.4933 -160.266 -20.4706 79.5374 21.4468 
-1.2418633 0.4725710 -0.3413765 -4.95970 4.27313 64.3250 173.729 -1.69217 -8.19644 32.0005 -2.62714 -14.2575 37.8965 -2.97241 -12.5561 65.904 85.1916 -50.087 -108.326 -37.3307 -131.176 79.5747 24.2598 -122.506 -35.1179 -57.1599 90.3174 -9.65166 4.06422 -18.2691 75.4945 -28.7189 42.1584 44.7347 -29.9272 -32.5543 -90.8275 -8.09223 -12.7273 -19.2411 -2.51665 12.9117 -123.325 0.621952 -33.4801 69.356 12.6107 18.517 46.2519 -4.16897 -7.58414 -128.674 5.20487 1.24522 76.2376 2.72485 -6.47179 56.5923 0.172528 -2.33987 139.358 -86.6367 -159.384 -20.3686 79.5984 21.517 
-1.2425390 0.4720780 -0.3406988 -4.68186 4.44010 64.4912 173.42 -1.70918 -8.3092 32.0748 -2.66036 -14.1102 37.7882 -3.10025 -12.7678 64.9104 84.1724 -48.8068 -108.299 -37.2682 -131.214 81.0341 23.7278 -121.169 -45.5238 -54.3221 76.6358 -9.20943 3.35571 -15.5332 75.4146 -28.7661 41.9895 45.6509 -29.8527 -32.0995 -91.0802 -7.87953 -12.829 -19.3153 -2.538 12.9341 -123.484 0.544209 -33.4678 69.161 12.8019 18.6858 46.3284 -4.23206 -7.65352 -128.695 5.27935 1.51561 76.1872 2.8823 -6.61984 56.1874 0.140644 -2.36869 141.943 -86.7772 -156.568 -20.9159 79.7724 22.1511 
-1.2433656 0.4719400 -0.3399700 -4.51305 4.60744 64.6265 173.397 -1.86216 -8.41939 31.7182 -2.78417 -14.2201 37.9301 -3.17163 -13.0636 64.4525 83.3636 -48.8259 -108.244 -37.3857 -130.854 87.1822 21.1395 -122.701 -60.2354 -50.5446 59.9855 -11.5093 3.51689 -15.6769 75.4473 -28.6142 41.7185 46.0291 -30.0403 -31.7961 -91.2102 -7.94143 -12.8618 -19.4974 -2.55158 12.9448 -123.641 0.490349 -33.5069 69.0129 12.9714 18.7651 46.3588 -4.26573 -7.68459 -128.48 5.30837 1.64329 75.9667 2.63525 -6.69195 55.5508 0.152682 -2.32402 145.947 -86.7664 -152.393 -22.4509 80.1565 23.6882 
-1.2443949 0.4720120 -0.3391520 -4.45281 4.75005 64.7085 173.521 -1.98094 -8.85806 31.2454 -2.80838 -13.9892 37.9332 -3.07028 -13.8449 66.4121 83.3678 -50.848 -108.218 -37.4417 -130.682 91.2415 18.9481 -123.437 -67.3077 -47.5187 52.0125 -12.9809 3.97369 -17.0576 75.4275 -28.4471 41.2138 46.3972 -30.3007 -31.1049 -91.3308 -7.92183 -12.9266 -19.6859 -2.6125 13.1193 -123.813 0.471293 -33.6404 69.0169 13.1314 18.8002 46.4332 -4.2803 -7.69265 -128.544 5.36427 1.81203 75.972 2.40856 -6.81404 55.8138 0.220825 -2.28449 150.258 -86.6587 -148.018 -24.617 80.6738 25.7614 
-1.2453224 0.4719200 -0.3384579 -4.41699 4.87171 64.8222 173.513 -1.98294 -9.52311 31.069 -2.71899 -13.3525 37.7981 -2.69327 -14.6313 69.9413 82.9315 -54.1517 -108.208 -37.2242 -131.041 88.3782 18.7403 -121.656 -65.7885 -48.1228 54.6796 -13.1969 3.76007 -16.2724 75.3912 -28.504 41.2302 46.369 -30.8428 -31.0415 -91.1654 -7.61516 -12.845 -19.8001 -2.74458 13.4247 -123.972 0.574154 -33.7651 69.0872 13.1873 18.8107 46.6634 -4.29199 -7.69626 -128.394 5.36906 1.9053 75.7866 1.97056 -6.91443 55.8761 0.294624 -2.21673 155.108 -86.4861 -143.131 -27.9304 81.4056 28.8915 
-1.2459530 0.4716860 -0.3379880 -4.39563 4.97611 65.0676 173.33 -2.05852 -9.93443 31.143 -2.77296 -12.9074 37.2893 -2.14129 -15.3977 74.4103 82.559 -57.7562 -108.185 -37.0955 -131.208 85.0271 18.4249 -119.945 -64.1212 -48.7815 57.6194 -14.1271 3.49027 -15.2232 75.3878 -28.497 41.1995 46.2064 -30.9991 -31.1708 -90.9725 -7.93303 -12.7821 -20.2129 -2.77679 13.4179 -124.091 0.710968 -33.811 69.1032 13.1851 18.704 46.7293 -4.27518 -7.67172 -128.156 5.46054 1.93307 75.5115 1.75368 -7.01459 55.8916 0.33448 -2.17631 161.591 -86.2478 -136.614 -32.5269 82.3159 33.2717 
-1.2465982 0.4713920 -0.3376457 -4.40383 5.09740 65.3399 173.133 -2.20117 -10.0057 31.1008 -2.93345 -12.9456 36.7837 -1.40842 -16.5064 82.8979 83.1669 -65.0032 -108.24 -37.2294 -131.121 84.7664 18.598 -119.478 -65.2691 -47.9533 56.4011 -14.8565 3.28555 -14.5606 75.4236 -28.3126 40.8484 46.2759 -30.879 -31.3452 -90.8395 -7.85787 -12.6939 -20.3491 -2.82557 13.4746 -124.332 0.864548 -33.8095 69.2374 13.0343 18.5184 46.7751 -4.22385 -7.60269 -127.83 5.66536 1.96326 75.1539 1.86422 -7.16166 55.6837 0.318079 -2.1769 167.589 -85.9307 -130.57 -38.5662 83.2707 39.0499 
-1.2473886 0.4713740 -0.3375187 -4.42060 5.12049 65.6701 173.042 -2.23509 -9.9174 31.1074 -2.98115 -12.9682 36.2775 -1.18615 -17.2316 88.6281 83.8542 -69.7232 -108.265 -37.4148 -130.86 85.2411 18.0591 -119.809 -66.0467 -47.7206 55.6786 -14.2202 3.14132 -14.3842 75.4405 -28.1815 40.5646 46.6412 -30.4473 -31.5725 -90.7675 -8.04045 -12.7337 -20.5218 -2.73568 13.1569 -124.649 0.966332 -33.6784 69.5335 12.6411 18.2178 46.8115 -4.12219 -7.47064 -127.318 5.66722 1.93096 74.7676 1.38391 -7.19138 55.1354 0.363628 -2.09709 173.379 -85.6375 -124.822 -46.7015 84.1842 46.8684 
-1.2484202 0.4713420 -0.3376001 -4.35485 5.13727 66.0218 172.835 -2.08277 -9.86693 31.268 -2.84272 -12.7461 35.8476 -0.927976 -17.6654 93.2167 83.9384 -72.4885 -108.28 -37.5581 -130.648 85.7177 17.6471 -120.037 -66.1344 -47.5129 55.0789 -13.4446 3.13347 -14.631 75.4738 -28.05 40.3373 47.193 -30.0271 -31.3126 -90.6975 -7.90433 -12.7786 -20.4448 -2.71818 13.0886 -124.896 1.07522 -33.6441 69.6181 12.6792 18.0538 46.8229 -4.0942 -7.4314 -127.101 5.44396 1.51595 74.5438 1.35243 -6.92285 55.1568 0.355587 -2.11339 178.554 -85.3466 -119.645 -57.3345 84.9599 57.2286 
-1.2496594 0.4710920 -0.3378805 -4.24476 5.14221 66.4417 172.57 -1.82842 -9.74855 31.4214 -2.5936 -12.3967 35.9298 -0.975548 -17.9059 94.8507 84.0554 -73.3021 -108.175 -37.594 -130.298 87.2832 16.4672 -121.048 -67.7957 -46.8284 52.6476 -13.4293 3.35455 -15.2873 75.5805 -27.9148 40.369 47.5335 -29.8942 -30.8939 -90.5036 -7.83579 -12.8152 -20.3216 -2.65572 12.9247 -125.094 1.19302 -33.7591 69.5465 12.8805 18.1024 46.9079 -4.12189 -7.45824 -127.193 5.39518 1.44216 74.6486 1.38491 -6.90935 55.6128 0.376592 -2.14464 -176.468 -85.0334 -114.62 -73.6627 85.5444 73.211 
